<svg width="320" height="320" viewBox="0 0 320 320" fill="none" xmlns="http://www.w3.org/2000/svg">
<g opacity="0.5" filter="url(#filter0_f_33_1091)">
<rect x="64" y="64" width="192" height="192" rx="96" fill="#AB2D00" fill-opacity="0.1"/>
</g>
<g filter="url(#filter1_d_33_1091)">
<rect x="96" y="96" width="128" height="128" rx="64" fill="white" shape-rendering="crispEdges"/>
<rect x="97" y="97" width="126" height="126" rx="63" stroke="#AB2D00" stroke-opacity="0.2" stroke-width="2" shape-rendering="crispEdges"/>
<path d="M136.035 158.5H146.431C146.246 156.138 145.633 153.854 144.59 151.646C143.548 149.438 142.204 147.512 140.558 145.865C139.235 147.662 138.184 149.622 137.405 151.747C136.626 153.872 136.169 156.123 136.035 158.5ZM173.569 158.5H183.965C183.831 156.162 183.374 153.939 182.595 151.834C181.816 149.728 180.765 147.777 179.442 145.981C177.681 147.665 176.308 149.583 175.323 151.733C174.338 153.883 173.754 156.138 173.569 158.5ZM140.558 174.019C142.204 172.335 143.548 170.417 144.59 168.267C145.633 166.117 146.246 163.862 146.431 161.5H136.035C136.208 163.877 136.674 166.109 137.434 168.195C138.193 170.282 139.235 172.223 140.558 174.019ZM179.442 174.019C180.765 172.223 181.816 170.272 182.595 168.166C183.374 166.061 183.831 163.838 183.965 161.5H173.569C173.754 163.862 174.338 166.117 175.323 168.267C176.308 170.417 177.681 172.335 179.442 174.019ZM149.465 158.5H158.5V136.035C155.35 136.242 152.397 137.009 149.641 138.334C146.886 139.659 144.492 141.427 142.462 143.638C144.488 145.654 146.111 147.922 147.328 150.443C148.545 152.964 149.258 155.65 149.465 158.5ZM161.5 158.5H170.535C170.742 155.65 171.445 152.945 172.643 150.386C173.841 147.826 175.473 145.577 177.538 143.638C175.508 141.427 173.114 139.659 170.359 138.334C167.603 137.009 164.65 136.242 161.5 136.035V158.5ZM158.5 183.965V161.5H149.465C149.258 164.427 148.555 167.132 147.357 169.614C146.159 172.097 144.527 174.308 142.462 176.246C144.492 178.458 146.866 180.245 149.584 181.609C152.301 182.972 155.273 183.758 158.5 183.965ZM161.5 183.965C164.65 183.758 167.603 182.991 170.359 181.666C173.114 180.341 175.508 178.573 177.538 176.362C175.473 174.423 173.841 172.193 172.643 169.672C171.445 167.151 170.742 164.427 170.535 161.5H161.5V183.965ZM160 187C156.273 187 152.767 186.289 149.483 184.868C146.198 183.447 143.34 181.521 140.91 179.09C138.479 176.66 136.553 173.802 135.132 170.517C133.711 167.233 133 163.727 133 160C133 156.273 133.711 152.767 135.132 149.483C136.553 146.198 138.479 143.34 140.91 140.91C143.34 138.479 146.198 136.553 149.483 135.132C152.767 133.711 156.273 133 160 133C163.727 133 167.233 133.711 170.517 135.132C173.802 136.553 176.66 138.479 179.09 140.91C181.521 143.34 183.447 146.198 184.868 149.483C186.289 152.767 187 156.273 187 160C187 163.727 186.289 167.233 184.868 170.517C183.447 173.802 181.521 176.66 179.09 179.09C176.66 181.521 173.802 183.447 170.517 184.868C167.233 186.289 163.727 187 160 187Z" fill="black"/>
</g>
<defs>
<filter id="filter0_f_33_1091" x="0" y="0" width="320" height="320" filterUnits="userSpaceOnUse" color-interpolation-filters="sRGB">
<feFlood flood-opacity="0" result="BackgroundImageFix"/>
<feBlend mode="normal" in="SourceGraphic" in2="BackgroundImageFix" result="shape"/>
<feGaussianBlur stdDeviation="32" result="effect1_foregroundBlur_33_1091"/>
</filter>
<filter id="filter1_d_33_1091" x="94" y="95" width="132" height="132" filterUnits="userSpaceOnUse" color-interpolation-filters="sRGB">
<feFlood flood-opacity="0" result="BackgroundImageFix"/>
<feColorMatrix in="SourceAlpha" type="matrix" values="0 0 0 0 0 0 0 0 0 0 0 0 0 0 0 0 0 0 127 0" result="hardAlpha"/>
<feOffset dy="1"/>
<feGaussianBlur stdDeviation="1"/>
<feComposite in2="hardAlpha" operator="out"/>
<feColorMatrix type="matrix" values="0 0 0 0 0 0 0 0 0 0 0 0 0 0 0 0 0 0 0.05 0"/>
<feBlend mode="normal" in2="BackgroundImageFix" result="effect1_dropShadow_33_1091"/>
<feBlend mode="normal" in="SourceGraphic" in2="effect1_dropShadow_33_1091" result="shape"/>
</filter>
</defs>
</svg>
